<mxfile host="app.diagrams.net" modified="2023-10-10T17:23:53.435Z" agent="Mozilla/5.0 (Windows NT 10.0; Win64; x64) AppleWebKit/537.36 (KHTML, like Gecko) Chrome/117.0.0.0 Safari/537.36" etag="sdfAQIrZjFEFjB-IFUG7" version="22.0.4" type="device">
  <diagram name="Page-1" id="e7e014a7-5840-1c2e-5031-d8a46d1fe8dd">
    <mxGraphModel dx="2074" dy="1110" grid="1" gridSize="10" guides="1" tooltips="1" connect="1" arrows="1" fold="1" page="1" pageScale="1" pageWidth="1169" pageHeight="826" background="none" math="0" shadow="0">
      <root>
        <mxCell id="0" />
        <mxCell id="1" parent="0" />
        <mxCell id="2gSX2F4eT0yf_tqlvJ8g-43" value="Use-Case-Diagramm" style="shape=umlFrame;whiteSpace=wrap;html=1;pointerEvents=0;width=150;height=30;" vertex="1" parent="1">
          <mxGeometry x="325" y="20" width="535" height="720" as="geometry" />
        </mxCell>
        <mxCell id="2gSX2F4eT0yf_tqlvJ8g-49" style="edgeStyle=orthogonalEdgeStyle;rounded=0;orthogonalLoop=1;jettySize=auto;html=1;exitX=0.5;exitY=0.5;exitDx=0;exitDy=0;exitPerimeter=0;" edge="1" parent="1" source="2gSX2F4eT0yf_tqlvJ8g-44" target="2gSX2F4eT0yf_tqlvJ8g-48">
          <mxGeometry relative="1" as="geometry" />
        </mxCell>
        <mxCell id="2gSX2F4eT0yf_tqlvJ8g-44" value="Beamter" style="shape=umlActor;verticalLabelPosition=bottom;verticalAlign=top;html=1;outlineConnect=0;" vertex="1" parent="1">
          <mxGeometry x="360" y="130" width="30" height="60" as="geometry" />
        </mxCell>
        <mxCell id="2gSX2F4eT0yf_tqlvJ8g-45" value="App" style="shape=umlFrame;whiteSpace=wrap;html=1;pointerEvents=0;" vertex="1" parent="1">
          <mxGeometry x="460" y="60" width="380" height="660" as="geometry" />
        </mxCell>
        <mxCell id="2gSX2F4eT0yf_tqlvJ8g-56" style="edgeStyle=orthogonalEdgeStyle;rounded=0;orthogonalLoop=1;jettySize=auto;html=1;exitX=0.5;exitY=1;exitDx=0;exitDy=0;entryX=0.5;entryY=0;entryDx=0;entryDy=0;" edge="1" parent="1" source="2gSX2F4eT0yf_tqlvJ8g-48" target="2gSX2F4eT0yf_tqlvJ8g-55">
          <mxGeometry relative="1" as="geometry" />
        </mxCell>
        <mxCell id="2gSX2F4eT0yf_tqlvJ8g-48" value="Login" style="ellipse;whiteSpace=wrap;html=1;" vertex="1" parent="1">
          <mxGeometry x="480" y="110" width="110" height="40" as="geometry" />
        </mxCell>
        <mxCell id="2gSX2F4eT0yf_tqlvJ8g-54" style="edgeStyle=orthogonalEdgeStyle;rounded=0;orthogonalLoop=1;jettySize=auto;html=1;exitX=0;exitY=0;exitDx=107.5;exitDy=12.5;exitPerimeter=0;" edge="1" parent="1" source="2gSX2F4eT0yf_tqlvJ8g-52" target="2gSX2F4eT0yf_tqlvJ8g-48">
          <mxGeometry relative="1" as="geometry" />
        </mxCell>
        <mxCell id="2gSX2F4eT0yf_tqlvJ8g-52" value="Login mit Berechtigungsnachweis" style="shape=note2;boundedLbl=1;whiteSpace=wrap;html=1;size=16;verticalAlign=top;align=center;" vertex="1" parent="1">
          <mxGeometry x="630" y="80" width="190" height="50" as="geometry" />
        </mxCell>
        <mxCell id="2gSX2F4eT0yf_tqlvJ8g-58" style="edgeStyle=orthogonalEdgeStyle;rounded=0;orthogonalLoop=1;jettySize=auto;html=1;exitX=1;exitY=0.5;exitDx=0;exitDy=0;entryX=0;entryY=0.5;entryDx=0;entryDy=0;" edge="1" parent="1" source="2gSX2F4eT0yf_tqlvJ8g-55" target="2gSX2F4eT0yf_tqlvJ8g-57">
          <mxGeometry relative="1" as="geometry" />
        </mxCell>
        <mxCell id="2gSX2F4eT0yf_tqlvJ8g-60" style="edgeStyle=orthogonalEdgeStyle;rounded=0;orthogonalLoop=1;jettySize=auto;html=1;exitX=0.5;exitY=1;exitDx=0;exitDy=0;" edge="1" parent="1" source="2gSX2F4eT0yf_tqlvJ8g-55" target="2gSX2F4eT0yf_tqlvJ8g-59">
          <mxGeometry relative="1" as="geometry" />
        </mxCell>
        <mxCell id="2gSX2F4eT0yf_tqlvJ8g-62" style="edgeStyle=orthogonalEdgeStyle;rounded=0;orthogonalLoop=1;jettySize=auto;html=1;exitX=0.5;exitY=1;exitDx=0;exitDy=0;" edge="1" parent="1" source="2gSX2F4eT0yf_tqlvJ8g-55" target="2gSX2F4eT0yf_tqlvJ8g-61">
          <mxGeometry relative="1" as="geometry" />
        </mxCell>
        <mxCell id="2gSX2F4eT0yf_tqlvJ8g-64" style="edgeStyle=orthogonalEdgeStyle;rounded=0;orthogonalLoop=1;jettySize=auto;html=1;exitX=0.5;exitY=1;exitDx=0;exitDy=0;" edge="1" parent="1" source="2gSX2F4eT0yf_tqlvJ8g-55" target="2gSX2F4eT0yf_tqlvJ8g-63">
          <mxGeometry relative="1" as="geometry">
            <Array as="points">
              <mxPoint x="540" y="310" />
              <mxPoint x="655" y="310" />
            </Array>
          </mxGeometry>
        </mxCell>
        <mxCell id="2gSX2F4eT0yf_tqlvJ8g-55" value="Wähle Geoarea" style="ellipse;whiteSpace=wrap;html=1;" vertex="1" parent="1">
          <mxGeometry x="480" y="210" width="120" height="50" as="geometry" />
        </mxCell>
        <mxCell id="2gSX2F4eT0yf_tqlvJ8g-57" value="Lese aktuelle Pollutions" style="ellipse;whiteSpace=wrap;html=1;" vertex="1" parent="1">
          <mxGeometry x="660" y="195" width="170" height="80" as="geometry" />
        </mxCell>
        <mxCell id="2gSX2F4eT0yf_tqlvJ8g-66" style="edgeStyle=orthogonalEdgeStyle;rounded=0;orthogonalLoop=1;jettySize=auto;html=1;exitX=0.5;exitY=1;exitDx=0;exitDy=0;entryX=0;entryY=0.5;entryDx=0;entryDy=0;" edge="1" parent="1" source="2gSX2F4eT0yf_tqlvJ8g-59" target="2gSX2F4eT0yf_tqlvJ8g-65">
          <mxGeometry relative="1" as="geometry" />
        </mxCell>
        <mxCell id="2gSX2F4eT0yf_tqlvJ8g-59" value="Erstelle Pollution" style="ellipse;whiteSpace=wrap;html=1;" vertex="1" parent="1">
          <mxGeometry x="470" y="330" width="140" height="70" as="geometry" />
        </mxCell>
        <mxCell id="2gSX2F4eT0yf_tqlvJ8g-68" style="edgeStyle=orthogonalEdgeStyle;rounded=0;orthogonalLoop=1;jettySize=auto;html=1;exitX=0.5;exitY=1;exitDx=0;exitDy=0;entryX=1;entryY=0.5;entryDx=0;entryDy=0;" edge="1" parent="1" source="2gSX2F4eT0yf_tqlvJ8g-61" target="2gSX2F4eT0yf_tqlvJ8g-65">
          <mxGeometry relative="1" as="geometry" />
        </mxCell>
        <mxCell id="2gSX2F4eT0yf_tqlvJ8g-61" value="Bearbeite Pollution" style="ellipse;whiteSpace=wrap;html=1;" vertex="1" parent="1">
          <mxGeometry x="690" y="330" width="140" height="70" as="geometry" />
        </mxCell>
        <mxCell id="2gSX2F4eT0yf_tqlvJ8g-67" style="edgeStyle=orthogonalEdgeStyle;rounded=0;orthogonalLoop=1;jettySize=auto;html=1;exitX=0.5;exitY=1;exitDx=0;exitDy=0;" edge="1" parent="1" source="2gSX2F4eT0yf_tqlvJ8g-63" target="2gSX2F4eT0yf_tqlvJ8g-65">
          <mxGeometry relative="1" as="geometry" />
        </mxCell>
        <mxCell id="2gSX2F4eT0yf_tqlvJ8g-63" value="Lösche Pollution" style="ellipse;whiteSpace=wrap;html=1;" vertex="1" parent="1">
          <mxGeometry x="585" y="413" width="140" height="70" as="geometry" />
        </mxCell>
        <mxCell id="2gSX2F4eT0yf_tqlvJ8g-65" value="Datenbankaktualisierung" style="ellipse;whiteSpace=wrap;html=1;" vertex="1" parent="1">
          <mxGeometry x="585" y="530" width="140" height="70" as="geometry" />
        </mxCell>
        <mxCell id="2gSX2F4eT0yf_tqlvJ8g-70" style="edgeStyle=orthogonalEdgeStyle;rounded=0;orthogonalLoop=1;jettySize=auto;html=1;exitX=0;exitY=0;exitDx=106.5;exitDy=0;exitPerimeter=0;entryX=0.5;entryY=1;entryDx=0;entryDy=0;" edge="1" parent="1" source="2gSX2F4eT0yf_tqlvJ8g-69" target="2gSX2F4eT0yf_tqlvJ8g-65">
          <mxGeometry relative="1" as="geometry" />
        </mxCell>
        <mxCell id="2gSX2F4eT0yf_tqlvJ8g-69" value="Automatische Aktualisierung der Datenbank" style="shape=note2;boundedLbl=1;whiteSpace=wrap;html=1;size=7;verticalAlign=top;align=center;" vertex="1" parent="1">
          <mxGeometry x="545" y="650" width="220" height="50" as="geometry" />
        </mxCell>
      </root>
    </mxGraphModel>
  </diagram>
</mxfile>
